<svg xmlns="http://www.w3.org/2000/svg" xmlns:xlink="http://www.w3.org/1999/xlink" width="28" height="28" viewBox="0 0 28 28">
  <defs>
    <clipPath id="clip-path">
      <rect id="Rectangle_1425" data-name="Rectangle 1425" width="14" height="14" transform="translate(49 650)" fill="#fff"/>
    </clipPath>
  </defs>
  <g id="Group_3294" data-name="Group 3294" transform="translate(-1486 -353)">
    <g id="Group_1196" data-name="Group 1196" transform="translate(493 270)">
      <g id="Rectangle_80" data-name="Rectangle 80" transform="translate(993 83)" fill="#fff" stroke="#707070" stroke-width="1" opacity="0">
        <rect width="28" height="28" stroke="none"/>
        <rect x="0.5" y="0.5" width="27" height="27" fill="none"/>
      </g>
      <g id="Group_3296" data-name="Group 3296" transform="translate(-1 1)">
        <path id="Path_2779" data-name="Path 2779" d="M51.5,661.5S44,658,44,652v-7l8-3,8,3v7" transform="translate(955 -557)" fill="none" stroke="#fff" stroke-linecap="round" stroke-linejoin="round" stroke-width="1"/>
        <g id="Group_3295" data-name="Group 3295" transform="translate(955 -557)" clip-path="url(#clip-path)">
          <path id="Path_2780" data-name="Path 2780" d="M56,658.75A1.75,1.75,0,1,0,54.25,657,1.75,1.75,0,0,0,56,658.75Z" fill="none" stroke="#fff" stroke-linecap="round" stroke-linejoin="round" stroke-width="1"/>
          <path id="Path_2781" data-name="Path 2781" d="M60.315,658.75a.961.961,0,0,0,.193,1.061l.035.035a1.166,1.166,0,0,1,0,1.651,1.147,1.147,0,0,1-.379.253,1.166,1.166,0,0,1-.894,0,1.147,1.147,0,0,1-.379-.253l-.035-.035a.969.969,0,0,0-1.645.689v.1a1.167,1.167,0,1,1-2.333,0V662.2a1,1,0,0,0-1.692-.688l-.035.035a1.179,1.179,0,0,1-.379.253,1.166,1.166,0,0,1-.893,0,1.167,1.167,0,0,1-.632-.632,1.167,1.167,0,0,1,.253-1.272l.035-.035a.969.969,0,0,0-.688-1.645h-.1a1.167,1.167,0,1,1,0-2.333H50.8a1,1,0,0,0,.688-1.692l-.035-.035a1.167,1.167,0,0,1,0-1.651,1.178,1.178,0,0,1,.379-.253,1.165,1.165,0,0,1,.894,0,1.178,1.178,0,0,1,.379.253l.035.035a.956.956,0,0,0,.5.259.97.97,0,0,0,.56-.066h.047a.965.965,0,0,0,.583-.881v-.1a1.167,1.167,0,1,1,2.333,0v.052a.969.969,0,0,0,1.645.689l.035-.035a1.164,1.164,0,0,1,.379-.254,1.165,1.165,0,0,1,.894,0,1.167,1.167,0,0,1,.379,1.9l-.035.035a.964.964,0,0,0-.193,1.062v.047a.963.963,0,0,0,.881.583h.1a1.167,1.167,0,1,1,0,2.333H61.2a.961.961,0,0,0-.881.584Z" fill="none" stroke="#fff" stroke-linecap="round" stroke-linejoin="round" stroke-width="1"/>
        </g>
      </g>
    </g>
  </g>
</svg>
