<svg xmlns="http://www.w3.org/2000/svg" width="19" height="19" viewBox="0 0 19 19">
  <g id="Group_3289" data-name="Group 3289" transform="translate(-943 -389)">
    <g id="Group_3288" data-name="Group 3288" transform="translate(943 389)">
      <g id="Group_488" data-name="Group 488">
        <g id="Rectangle_107" data-name="Rectangle 107" fill="#fff" stroke="#707070" stroke-width="1" opacity="0">
          <rect width="19" height="19" stroke="none"/>
          <rect x="0.5" y="0.5" width="18" height="18" fill="none"/>
        </g>
      </g>
    </g>
    <g id="Group_2588" data-name="Group 2588" transform="translate(947.072 392.469)">
      <path id="Path_1534" data-name="Path 1534" d="M2.6,10.079V12.19A1.206,1.206,0,0,0,3.809,13.4h7.237a1.206,1.206,0,0,0,1.206-1.206V10.079M2,8.571v-.6A1.206,1.206,0,0,1,3.206,6.762H11.65a1.206,1.206,0,0,1,1.206,1.206v.6M7.428,4.953V6.762m0-1.809c.761,0,1.206-.584,1.206-1.583S7.428,1.334,7.428,1.334,6.222,2.37,6.222,3.369,6.667,4.953,7.428,4.953Z" transform="translate(-2 -1.334)" fill="none" stroke="#000" stroke-linecap="round" stroke-linejoin="round" stroke-width="1"/>
      <path id="Path_1535" data-name="Path 1535" d="M2,9.334a1.809,1.809,0,1,0,3.619,0,1.809,1.809,0,1,0,3.619,0,1.809,1.809,0,0,0,3.619,0" transform="translate(-2 -2.097)" fill="none" stroke="#000" stroke-linecap="round" stroke-linejoin="round" stroke-width="1"/>
    </g>
  </g>
</svg>
