<svg xmlns="http://www.w3.org/2000/svg" width="28" height="28" viewBox="0 0 28 28">
  <g id="Group_10794" data-name="Group 10794" transform="translate(-1025 -261)">
    <g id="Rectangle_102" data-name="Rectangle 102" transform="translate(1025 261)" fill="#fff" stroke="#707070" stroke-width="1" opacity="0">
      <rect width="28" height="28" stroke="none"/>
      <rect x="0.5" y="0.5" width="27" height="27" fill="none"/>
    </g>
    <g id="Icon_feather-briefcase" data-name="Icon feather-briefcase" transform="translate(1028 263.5)">
      <path id="Path_1516" data-name="Path 1516" d="M4.58,10.5H17.222a1.58,1.58,0,0,1,1.58,1.58v7.9a1.58,1.58,0,0,1-1.58,1.58H4.58A1.58,1.58,0,0,1,3,19.981v-7.9A1.58,1.58,0,0,1,4.58,10.5Z" transform="translate(0 -2.84)" fill="none" stroke="#6c757d" stroke-linecap="round" stroke-linejoin="round" stroke-width="1"/>
      <path id="Path_1517" data-name="Path 1517" d="M18.321,18.722V6.08a1.58,1.58,0,0,0-1.58-1.58H13.58A1.58,1.58,0,0,0,12,6.08V18.722" transform="translate(-4.259)" fill="none" stroke="#6c757d" stroke-linecap="round" stroke-linejoin="round" stroke-width="1"/>
    </g>
  </g>
</svg>
