<svg xmlns="http://www.w3.org/2000/svg" width="50" height="50" viewBox="0 0 50 50">
  <g id="Group_10790" data-name="Group 10790" transform="translate(-1040 -16)">
    <rect id="Rectangle_403" data-name="Rectangle 403" width="50" height="50" rx="25" transform="translate(1040 16)" fill="#f8f9fa"/>
    <g id="video_recording_record_movie_film" transform="translate(1045 17.666)">
      <g id="Group_1622" data-name="Group 1622" transform="translate(10 14.334)">
        <g id="Group_1621" data-name="Group 1621" transform="translate(0 0)">
          <path id="Path_1568" data-name="Path 1568" d="M17.929,14.348c-.066.008-.331.058-.588.1a8.979,8.979,0,0,0-7.093,6.613,9.666,9.666,0,0,0,0,4.354A8.973,8.973,0,0,0,16.737,31.9a9.666,9.666,0,0,0,4.354,0,8.959,8.959,0,0,0,6.489-6.489,9.858,9.858,0,0,0,.108-3.874,8.949,8.949,0,0,0-7.077-7.077,8.08,8.08,0,0,0-1.548-.124C18.509,14.331,18,14.331,17.929,14.348Zm1.606,1.68a1.9,1.9,0,0,1,1.258,1.482,1.838,1.838,0,0,1-.588,1.705,1.637,1.637,0,0,1-1.283.5,1.637,1.637,0,0,1-1.283-.5,1.831,1.831,0,0,1-.381-2.293A1.886,1.886,0,0,1,19.535,16.028Zm-5,2.624a1.9,1.9,0,0,1,.017,3.749,1.779,1.779,0,0,1-1.639-.538,1.607,1.607,0,0,1-.555-1.333,1.671,1.671,0,0,1,.488-1.275,1.8,1.8,0,0,1,1.01-.579A1.126,1.126,0,0,1,14.536,18.652Zm9.386,0a2,2,0,0,1,1.457,1.159,1.909,1.909,0,0,1-1.059,2.467A1.9,1.9,0,1,1,23.2,18.652,1.513,1.513,0,0,1,23.922,18.652Zm-4.436,2.342a2.332,2.332,0,0,1,1.465,3.344,2.759,2.759,0,0,1-.927.927,2.3,2.3,0,0,1-2.731-.4,2.271,2.271,0,0,1,.008-3.253A2.231,2.231,0,0,1,19.485,20.994Zm-4.916,3.079a1.9,1.9,0,0,1-.05,3.749,1.853,1.853,0,0,1-1.688-.6,1.648,1.648,0,0,1-.488-1.275,1.671,1.671,0,0,1,.472-1.258,1.765,1.765,0,0,1,.927-.588A1.484,1.484,0,0,1,14.569,24.073Zm9.75.1a2.1,2.1,0,0,1,1.051,1.051,2.13,2.13,0,0,1,.008,1.415,1.941,1.941,0,0,1-2.069,1.167,1.915,1.915,0,0,1-1.589-1.589,1.946,1.946,0,0,1,1.506-2.152A2.307,2.307,0,0,1,24.319,24.173Zm-4.685,2.707a1.655,1.655,0,0,1,.621.43,1.607,1.607,0,0,1,.555,1.333,1.34,1.34,0,0,1-.149.745A1.907,1.907,0,0,1,19.229,30.5a1.888,1.888,0,0,1-2.044-1.117,1.287,1.287,0,0,1-.149-.745,1.862,1.862,0,0,1,.116-.7,2.311,2.311,0,0,1,.811-.952A2.019,2.019,0,0,1,19.634,26.879Z" transform="translate(-10 -14.334)" fill="#343a40"/>
          <path id="Path_1569" data-name="Path 1569" d="M105.312,108.89a1.052,1.052,0,0,0-.612,1.018,1.084,1.084,0,0,0,2.169-.033,1.052,1.052,0,0,0-.654-.993A1.214,1.214,0,0,0,105.312,108.89Z" transform="translate(-96.862 -100.98)" fill="#343a40"/>
          <path id="Path_1570" data-name="Path 1570" d="M187.138,125.165c-.017.132-.041.447-.058.687a2.68,2.68,0,0,1-.074.538,3.858,3.858,0,0,0-.149.612c0,.033.066.058.141.058.141,0,.141.008.174.323a1.338,1.338,0,0,1,.017.339,1.109,1.109,0,0,1-.248.033c-.19.017-.24.008-.248-.058-.008-.041-.091.1-.174.315s-.166.43-.19.48c-.033.066-.017.083.083.074.116-.017.116-.008.223.944.058.53.108,1.018.108,1.093l.008.124-.993.116-.993.108-.364.372c-.2.207-.356.381-.348.381s.629-.058,1.382-.141,1.382-.141,1.391-.124c.025.025.273,2.127.265,2.152-.017.008-2.723.306-2.806.306-.058,0-.1-.224-.19-1.043-.058-.579-.116-1.059-.124-1.068s-.058.017-.108.058c-.075.066-.083.124-.058.356.033.3.041.29-.281.331-.2.033-.215.025-.215-.091,0-.149-.033-.149-.19-.025l-.116.091.108,1c.058.555.124,1.018.141,1.043.033.033,4.925-.48,4.95-.521.017-.017-.952-8.666-.993-8.906l-.041-.223Zm.207,3.915c-.017.166-.017.174-.24.19l-.223.017-.033-.232c-.058-.447-.058-.455.207-.472.223-.017.232-.017.273.157A2.328,2.328,0,0,1,187.345,129.08Zm.124,1.018a2.61,2.61,0,0,1,.033.339c0,.149-.017.157-.223.19a1,1,0,0,1-.24.017,2.171,2.171,0,0,1-.05-.348l-.033-.323.141-.025C187.428,129.9,187.436,129.908,187.47,130.1Zm.149,1.407c.017.066.033.215.05.339l.025.232-.223.033a.5.5,0,0,1-.265-.008,1.276,1.276,0,0,1-.066-.348l-.033-.306.166-.017C187.585,131.389,187.6,131.4,187.619,131.5Zm.149,1.333a2.183,2.183,0,0,1,.05.348l.033.273-.248.017c-.273.017-.265.033-.315-.414-.033-.257-.008-.273.281-.281C187.676,132.771,187.759,132.8,187.767,132.838Zm-3.84.488c.083.513.074.521-.033.555a1.215,1.215,0,0,1-.265.033c-.141,0-.166-.017-.166-.116,0-.066-.017-.215-.033-.339l-.033-.224.215-.017a1.915,1.915,0,0,0,.248-.025C183.886,133.177,183.91,133.243,183.927,133.326Z" transform="translate(-168.681 -115.749)" fill="#343a40"/>
        </g>
      </g>
    </g>
  </g>
</svg>
