<svg xmlns="http://www.w3.org/2000/svg" width="28" height="28" viewBox="0 0 28 28">
  <g id="Group_71" data-name="Group 71" transform="translate(-1026 -261)">
    <g id="Rectangle_102" data-name="Rectangle 102" transform="translate(1026 261)" fill="#fff" stroke="#707070" stroke-width="1" opacity="0">
      <rect width="28" height="28" stroke="none"/>
      <rect x="0.5" y="0.5" width="27" height="27" fill="none"/>
    </g>
    <path id="Path_132" data-name="Path 132" d="M242.059,135.521a3,3,0,0,1,4.682,2.72,9.091,9.091,0,0,1-3.741.479,6,6,0,0,0-11.058-3.2m11.057,3.2v.031a5.866,5.866,0,0,1-.037.666,12.016,12.016,0,0,1-11.926,0,6,6,0,0,1-.037-.7m0,0a8.979,8.979,0,0,1-3.739-.477,3,3,0,0,1,4.681-2.72m-.942,3.2a5.963,5.963,0,0,1,.942-3.2M240,126.75a3,3,0,1,1-.879-2.121A3,3,0,0,1,240,126.75Zm6,3a2.25,2.25,0,1,1-.659-1.591A2.235,2.235,0,0,1,246,129.75Zm-13.5,0a2.25,2.25,0,1,1-.659-1.591A2.235,2.235,0,0,1,232.5,129.75Z" transform="translate(803.249 142.75)" fill="none" stroke="#f9f9f9" stroke-linecap="round" stroke-linejoin="round" stroke-width="1"/>
  </g>
</svg>
