<svg xmlns="http://www.w3.org/2000/svg" xmlns:xlink="http://www.w3.org/1999/xlink" width="116.989" height="32" viewBox="0 0 116.989 32">
  <defs>
    <clipPath id="clip-path">
      <rect id="Rectangle_153" data-name="Rectangle 153" width="116.989" height="32" transform="translate(24 24)" fill="#fff"/>
    </clipPath>
  </defs>
  <g id="Group_139" data-name="Group 139" transform="translate(-24 -24)" clip-path="url(#clip-path)">
    <path id="Path_291" data-name="Path 291" d="M33.5,46.3a2.037,2.037,0,0,1,1.445.525,1.914,1.914,0,0,1,.6,1.376h3.083A4.341,4.341,0,0,0,37.124,45,5.339,5.339,0,0,0,33.5,43.775a5.024,5.024,0,0,0-3.957,1.65,6.471,6.471,0,0,0-1.469,4.444,6.287,6.287,0,0,0,1.414,4.408,5.2,5.2,0,0,0,4.016,1.548,5.113,5.113,0,0,0,3.53-1.2,5.04,5.04,0,0,0,1.6-3.336H35.548a2.347,2.347,0,0,1-.654,1.5,1.892,1.892,0,0,1-1.39.568,1.946,1.946,0,0,1-1.72-.888,4.683,4.683,0,0,1-.594-2.594,4.882,4.882,0,0,1,.594-2.653A1.93,1.93,0,0,1,33.5,46.3Z" fill="#fff"/>
    <path id="Path_292" data-name="Path 292" d="M43.927,45.479c-.129.21-.249.427-.363.652V44.08H40.7V55.53h3.023V49.582a2.835,2.835,0,0,1,.676-2.064,2.766,2.766,0,0,1,2.056-.688c.344,0,.642.012.907.036V43.789l-.688-.012A3.157,3.157,0,0,0,43.927,45.479Z" fill="#fff"/>
    <path id="Path_293" data-name="Path 293" d="M57.663,45.362a5.114,5.114,0,0,0-4.026-1.585,5.193,5.193,0,0,0-4,1.548,6.084,6.084,0,0,0-1.44,4.3,6.722,6.722,0,0,0,1.414,4.582,5.081,5.081,0,0,0,4.022,1.612,6.026,6.026,0,0,0,3.53-.986A4.4,4.4,0,0,0,58.977,52.1H55.91a1.522,1.522,0,0,1-.707.944,2.248,2.248,0,0,1-1.263.387,2.447,2.447,0,0,1-2.1-.848,3.943,3.943,0,0,1-.606-2.03h7.8a2.438,2.438,0,0,0,.048-.678A6.54,6.54,0,0,0,57.663,45.362Zm-6.4,3.269a3.989,3.989,0,0,1,.545-1.474,2.025,2.025,0,0,1,1.777-.895,2.12,2.12,0,0,1,1.8.76,3.089,3.089,0,0,1,.544,1.609Z" fill="#fff"/>
    <path id="Path_294" data-name="Path 294" d="M68.534,40.723V45.59l-.132-.172a3.686,3.686,0,0,0-3.133-1.645,4.348,4.348,0,0,0-3.513,1.609,6.406,6.406,0,0,0-1.335,4.244,7.048,7.048,0,0,0,1.342,4.485,4.273,4.273,0,0,0,3.53,1.7,3.886,3.886,0,0,0,3.277-1.681l.048-.072v1.462h2.925V38.82A3,3,0,0,1,68.534,40.723ZM68,52.386a2.395,2.395,0,0,1-3.785.048,4.14,4.14,0,0,1-.678-2.527,4.245,4.245,0,0,1,.688-2.581,2.218,2.218,0,0,1,1.892-.931,2.259,2.259,0,0,1,1.893.882,3.9,3.9,0,0,1,.688,2.455,4.574,4.574,0,0,1-.7,2.653Z" fill="#fff"/>
    <path id="Path_295" data-name="Path 295" d="M82.8,45.362a5.115,5.115,0,0,0-4.026-1.585,5.2,5.2,0,0,0-4,1.548,6.073,6.073,0,0,0-1.44,4.3,6.717,6.717,0,0,0,1.416,4.582,5.079,5.079,0,0,0,4.026,1.609,6.026,6.026,0,0,0,3.53-.986,4.4,4.4,0,0,0,1.815-2.739H81.046a1.522,1.522,0,0,1-.707.944,2.249,2.249,0,0,1-1.263.387,2.447,2.447,0,0,1-2.1-.848,3.941,3.941,0,0,1-.606-2.03h7.8a2.437,2.437,0,0,0,.048-.678A6.535,6.535,0,0,0,82.8,45.362Zm-6.4,3.269a3.989,3.989,0,0,1,.545-1.474,2.025,2.025,0,0,1,1.777-.895,2.12,2.12,0,0,1,1.8.76,3.068,3.068,0,0,1,.544,1.609Z" fill="#fff"/>
    <path id="Path_296" data-name="Path 296" d="M92.717,43.775A3.884,3.884,0,0,0,89.476,45.2a5.253,5.253,0,0,0-.387.582v-1.7H86.223V55.528h3.021V49.071a2.991,2.991,0,0,1,.64-2.064,2.327,2.327,0,0,1,1.825-.712,1.784,1.784,0,0,1,1.4.516,2.288,2.288,0,0,1,.459,1.566v7.157H96.6V47.825a4.133,4.133,0,0,0-1.032-2.975A3.725,3.725,0,0,0,92.717,43.775Z" fill="#fff"/>
    <path id="Path_297" data-name="Path 297" d="M102.79,38.82a3.848,3.848,0,0,1-3.011,1.88V44.08H98.191V46.2h1.6v7.013a2.3,2.3,0,0,0,.688,1.873,3.656,3.656,0,0,0,2.3.569q1.1,0,1.863-.06V53.354h-.63a2.415,2.415,0,0,1-.979-.127.534.534,0,0,1-.242-.516V46.2h1.851V44.08H102.79Z" fill="#fff"/>
    <path id="Path_298" data-name="Path 298" d="M123.295,46.3a2.035,2.035,0,0,1,1.445.525,1.914,1.914,0,0,1,.6,1.376h3.083a4.332,4.332,0,0,0-1.5-3.2,5.333,5.333,0,0,0-3.622-1.222,5.026,5.026,0,0,0-3.957,1.65,6.47,6.47,0,0,0-1.471,4.444,6.282,6.282,0,0,0,1.416,4.408,5.2,5.2,0,0,0,4.014,1.548,5.116,5.116,0,0,0,3.532-1.2,5.034,5.034,0,0,0,1.595-3.336h-3.085a2.347,2.347,0,0,1-.652,1.5,1.892,1.892,0,0,1-1.392.568,1.949,1.949,0,0,1-1.72-.888,4.707,4.707,0,0,1-.592-2.594,4.889,4.889,0,0,1,.592-2.653,1.934,1.934,0,0,1,1.72-.917Z" fill="#fff"/>
    <path id="Path_299" data-name="Path 299" d="M137.009,43.778a3.88,3.88,0,0,0-3.24,1.426l-.243.344V38.77a3.937,3.937,0,0,1-3.01,1.908V55.527h3.01V49.073a2.985,2.985,0,0,1,.642-2.064,2.33,2.33,0,0,1,1.825-.712,1.786,1.786,0,0,1,1.4.516,2.289,2.289,0,0,1,.459,1.566v7.157h3.023V47.828a4.133,4.133,0,0,0-1.032-2.975A3.715,3.715,0,0,0,137.009,43.778Z" fill="#fff"/>
    <path id="Path_300" data-name="Path 300" d="M115.11,45.36a5.116,5.116,0,0,0-4.026-1.585,5.194,5.194,0,0,0-4,1.548,6.076,6.076,0,0,0-1.438,4.3,6.721,6.721,0,0,0,1.414,4.582,5.1,5.1,0,0,0,4.036,1.612,6.025,6.025,0,0,0,3.53-.986,4.395,4.395,0,0,0,1.8-2.739h-3.069a1.52,1.52,0,0,1-.707.944,2.251,2.251,0,0,1-1.263.387,2.447,2.447,0,0,1-2.1-.848,3.9,3.9,0,0,1-.606-2.03h7.8a2.375,2.375,0,0,0,.05-.678A6.54,6.54,0,0,0,115.11,45.36Zm-6.4,3.269a4.019,4.019,0,0,1,.543-1.474,2.028,2.028,0,0,1,1.779-.895,2.12,2.12,0,0,1,1.8.76,3.06,3.06,0,0,1,.544,1.609Z" fill="#fff"/>
    <path id="Path_301" data-name="Path 301" d="M24.317,44.1a6.846,6.846,0,0,0,4.041-2.713,4.088,4.088,0,0,0,.6-1.806,16.243,16.243,0,0,1,2.08-6.46C22.591,35.592,24.317,44.1,24.317,44.1Z" fill="#fff"/>
    <path id="Path_302" data-name="Path 302" d="M36.313,30.368a11.555,11.555,0,0,1,4.633,1.158l6-3.393C50.227,26.146,49.262,24,49.262,24,46.176,25.619,36.313,30.368,36.313,30.368Z" fill="#fff"/>
    <path id="Path_303" data-name="Path 303" d="M42.006,32.018a2.713,2.713,0,0,1,2.236,2.132l3.613-2.065a3.6,3.6,0,0,0,1.454-3.862C48.458,28.775,42.006,32.018,42.006,32.018Z" fill="#fff"/>
    <path id="Path_304" data-name="Path 304" d="M44.32,34.95c.353,2.443-.8,2.409-.8,2.409a1.593,1.593,0,0,0-.86-1.35c-1.442-.558-3.16,1.049-3.16,1.049-1.517,2.421.876,2.643.876,2.643a12.87,12.87,0,0,0,7.546-3.21,2.852,2.852,0,0,1,.222-.208c2.168-1.96,1.283-3.957,1.283-3.957C48.692,33.162,44.32,34.95,44.32,34.95Z" fill="#fff"/>
  </g>
</svg>
