<svg xmlns="http://www.w3.org/2000/svg" width="50" height="50" viewBox="0 0 50 50">
  <g id="Group_10792" data-name="Group 10792" transform="translate(-1122 -16)">
    <rect id="Rectangle_404" data-name="Rectangle 404" width="50" height="50" rx="25" transform="translate(1122 16)" fill="#f8f9fa"/>
    <path id="Icon_feather-message-circle" data-name="Icon feather-message-circle" d="M22.5,13a8.38,8.38,0,0,1-.9,3.8A8.5,8.5,0,0,1,14,21.5a8.38,8.38,0,0,1-3.8-.9L4.5,22.5l1.9-5.7A8.38,8.38,0,0,1,5.5,13a8.5,8.5,0,0,1,4.7-7.6A8.38,8.38,0,0,1,14,4.5h.5a8.48,8.48,0,0,1,8,8Z" transform="translate(1133.5 27.5)" fill="#343a40"/>
  </g>
</svg>
