<svg xmlns="http://www.w3.org/2000/svg" xmlns:xlink="http://www.w3.org/1999/xlink" width="20" height="19" viewBox="0 0 20 19">
  <defs>
    <clipPath id="clip-path">
      <rect id="Rectangle_544" data-name="Rectangle 544" width="11" height="11" transform="translate(0.2 0.2)" fill="#fff"/>
    </clipPath>
  </defs>
  <g id="Group_1177" data-name="Group 1177" transform="translate(-1052 -352.5)">
    <g id="Group_1174" data-name="Group 1174" transform="translate(1052 352.5)">
      <g id="Group_488" data-name="Group 488" transform="translate(0 0)">
        <g id="Rectangle_107" data-name="Rectangle 107" transform="translate(0 0)" fill="#fff" stroke="#707070" stroke-width="1" opacity="0">
          <rect width="20" height="19" stroke="none"/>
          <rect x="0.5" y="0.5" width="19" height="18" fill="none"/>
        </g>
      </g>
    </g>
    <g id="file-certificate" transform="translate(1055.8 356.3)" clip-path="url(#clip-path)">
      <path id="Path_1497" data-name="Path 1497" d="M9.333,2V3.874a.469.469,0,0,0,.469.469h1.874" transform="translate(-2.357 -0.856)" fill="none" stroke="#000" stroke-linecap="round" stroke-linejoin="round" stroke-width="1"/>
      <path id="Path_1498" data-name="Path 1498" d="M3.333,4.343V2.937A.937.937,0,0,1,4.27,2H7.55L9.893,4.343V9.5a.937.937,0,0,1-.937.937H6.613" transform="translate(-0.574 -0.856)" fill="none" stroke="#000" stroke-linecap="round" stroke-linejoin="round" stroke-width="1"/>
      <path id="Path_1499" data-name="Path 1499" d="M3.406,10.145A1.406,1.406,0,1,0,2,8.739,1.406,1.406,0,0,0,3.406,10.145Z" transform="translate(-0.178 -2.441)" fill="none" stroke="#000" stroke-linecap="round" stroke-linejoin="round" stroke-width="1"/>
      <path id="Path_1500" data-name="Path 1500" d="M2.7,11.333,2,13.676l1.406-.7,1.406.7-.7-2.343" transform="translate(-0.178 -3.63)" fill="none" stroke="#000" stroke-linecap="round" stroke-linejoin="round" stroke-width="1"/>
    </g>
  </g>
</svg>
