<svg xmlns="http://www.w3.org/2000/svg" width="19" height="19" viewBox="0 0 19 19">
  <g id="Group_1175" data-name="Group 1175" transform="translate(-1052 -352.173)">
    <g id="Group_1174" data-name="Group 1174" transform="translate(1052 352)">
      <g id="Group_488" data-name="Group 488" transform="translate(0 0)">
        <g id="Rectangle_107" data-name="Rectangle 107" transform="translate(0 0.173)" fill="#fff" stroke="#707070" stroke-width="1" opacity="0">
          <rect width="19" height="19" stroke="none"/>
          <rect x="0.5" y="0.5" width="18" height="18" fill="none"/>
        </g>
      </g>
    </g>
    <path id="system-uicons_directions" d="M7.419,6.144V8.181m0,2.716v2.037m-4.073-9.5h7.468l1.358,1.358L10.814,6.144H3.346a.679.679,0,0,1-.679-.679V4.107a.679.679,0,0,1,.679-.679Zm8.147,4.752H4.025L2.667,9.539,4.025,10.9h7.468a.679.679,0,0,0,.679-.679V8.86a.679.679,0,0,0-.679-.679Z" transform="translate(1054.469 353.707)" fill="none" stroke="#000" stroke-linecap="round" stroke-linejoin="round" stroke-width="1"/>
  </g>
</svg>
