<svg xmlns="http://www.w3.org/2000/svg" width="28" height="28" viewBox="0 0 28 28">
  <g id="Group_93" data-name="Group 93" transform="translate(-1128 -271)">
    <g id="Rectangle_105" data-name="Rectangle 105" transform="translate(1128 271)" fill="#fff" stroke="#707070" stroke-width="1" opacity="0">
      <rect width="28" height="28" stroke="none"/>
      <rect x="0.5" y="0.5" width="27" height="27" fill="none"/>
    </g>
    <g id="Group_74" data-name="Group 74" transform="translate(681 153)">
      <path id="Path_145" data-name="Path 145" d="M466,141v-2a4,4,0,0,0-4-4h-8a4,4,0,0,0-4,4v2" fill="none" stroke="#f9f9f9" stroke-linecap="round" stroke-linejoin="round" stroke-width="1"/>
      <path id="Path_146" data-name="Path 146" d="M458,131a4,4,0,1,0-4-4A4,4,0,0,0,458,131Z" fill="none" stroke="#f9f9f9" stroke-linecap="round" stroke-linejoin="round" stroke-width="1"/>
      <path id="Path_147" data-name="Path 147" d="M472,141v-2a4,4,0,0,0-3-3.87" fill="none" stroke="#f9f9f9" stroke-linecap="round" stroke-linejoin="round" stroke-width="1"/>
      <path id="Path_148" data-name="Path 148" d="M465,123.13a4,4,0,0,1,0,7.75" fill="none" stroke="#f9f9f9" stroke-linecap="round" stroke-linejoin="round" stroke-width="1"/>
    </g>
  </g>
</svg>
