<svg xmlns="http://www.w3.org/2000/svg" width="28" height="28" viewBox="0 0 28 28">
  <g id="Group_71" data-name="Group 71" transform="translate(-1026 -261)">
    <g id="Rectangle_102" data-name="Rectangle 102" transform="translate(1026 261)" fill="#fff" stroke="#707070" stroke-width="1" opacity="0">
      <rect width="28" height="28" stroke="none"/>
      <rect x="0.5" y="0.5" width="27" height="27" fill="none"/>
    </g>
    <path id="Icon_awesome-connectdevelop" data-name="Icon awesome-connectdevelop" d="M25.225,11.294,22.961,7.372a.727.727,0,0,0,.085-.327.691.691,0,0,0-.666-.678L19.874,2.033a.706.706,0,0,0,.048-.218A.688.688,0,0,0,18.7,1.379H13.881a.66.66,0,0,0-1.041,0H8.046a.688.688,0,0,0-1.223.436.637.637,0,0,0,.048.218L4.342,6.427a.677.677,0,0,0-.412.617c0,.024.012.048.012.073L1.533,11.282a.689.689,0,0,0-.569.678.7.7,0,0,0,.545.678L4,16.948a.633.633,0,0,0-.036.218.676.676,0,0,0,.545.666l2.336,4.055a.782.782,0,0,0-.048.242.69.69,0,0,0,.69.69.668.668,0,0,0,.521-.242h4.83a.681.681,0,0,0,1.041,0h4.842a.676.676,0,0,0,.5.218.69.69,0,0,0,.69-.69.5.5,0,0,0-.036-.194l2.336-4.08a.676.676,0,0,0,.545-.666.685.685,0,0,0-.036-.218l2.482-4.31a.69.69,0,0,0,.557-.678.677.677,0,0,0-.533-.666ZM7.284,20.773,5.31,17.347H7.284Zm0-3.789H5.31a.744.744,0,0,0-.061-.145L7.284,14.7Zm0-2.821L5.008,16.572a1.131,1.131,0,0,0-.182-.073L2.308,12.141a.471.471,0,0,0,.024-.182A.639.639,0,0,0,2.32,11.8L4.669,7.735a.763.763,0,0,0,.351-.121L7.284,9.962v4.2Zm0-4.624L5.213,7.4a.662.662,0,0,0,.1-.351C5.31,7.033,5.3,7.008,5.3,7l1.985-.714V9.539Zm0-3.644L5.31,6.609,7.284,3.2ZM22.041,7.662l.036.061-1.6,7.554L17.6,12.238,22.029,7.65l.012.012Zm-8.51,8.789.521.533H13.022Zm-.012-.508L9.753,12.081l3.6-3.813L17.1,12.226Zm.242.266,3.583-3.717,3.051,3.22-.266,1.271H14.523l-.763-.775Zm5.133-13.8a.607.607,0,0,0,.157.061l2.615,4.552v.024a.662.662,0,0,0,.1.351l-4.407,4.576L13.6,8.013Zm-.412-.1L13.349,7.747,10.77,5.023l7.518-2.712h.194Zm-5.581,0a.643.643,0,0,0,.92,0h3.39L10.5,4.733,8.2,2.311h4.7Zm-5.254.254.048-.1q.061-.016.121-.036l2.312,2.433-2.482.9Zm0,3.583,2.748-.993,2.7,2.857-3.6,3.8-1.852-1.9V6.149Zm0,4.189,1.646,1.707L7.647,13.776V10.338Zm0,3.971,1.9-2.01,3.741,3.886-.775.8H7.647V14.308Zm.315,7.324a.65.65,0,0,0-.266-.157L7.647,21.4V17.347h4.515l-4.14,4.285H7.962Zm5.871,0a.672.672,0,0,0-.944,0H8.53l4.14-4.285H14.4l4.14,4.285H13.833Zm5.423-.533-.194.339a.608.608,0,0,0-.157.061l-4.031-4.152h5.169L19.256,21.1Zm.581-1,.581-2.748h.993Zm1.574-3.111h-.92l.206-.956.775.823a.448.448,0,0,0-.061.133Zm2.99-4.854L21.9,16.5a1.221,1.221,0,0,0-.182.085l-.932-.993,1.562-7.409,2.07,3.583a.92.92,0,0,0-.036.194.817.817,0,0,0,.024.169Z" transform="translate(1026.243 263.375)" fill="#fff"/>
  </g>
</svg>
