<svg xmlns="http://www.w3.org/2000/svg" width="17" height="17" viewBox="0 0 17 17">
  <g id="Group_3289" data-name="Group 3289" transform="translate(-943 -388.629)">
    <g id="Group_3288" data-name="Group 3288" transform="translate(943 388.629)">
      <g id="Group_488" data-name="Group 488">
        <g id="Rectangle_107" data-name="Rectangle 107" fill="#fff" stroke="#707070" stroke-width="1" opacity="0">
          <rect width="17" height="17" stroke="none"/>
          <rect x="0.5" y="0.5" width="16" height="16" fill="none"/>
        </g>
      </g>
    </g>
    <path id="Path_216" data-name="Path 216" d="M238.4,299.672v-4.727a.945.945,0,0,0-.945-.946h-5.673a.945.945,0,0,0-.945.946v4.727m7.563,0a3.782,3.782,0,0,1-3.781,3.782m3.781-3.782h.946a1.89,1.89,0,0,0,1.891-1.891v-.945a.945.945,0,0,0-.946-.946H238.4Zm-3.781,3.782a3.782,3.782,0,0,1-3.781-3.782m3.781,3.782v2.836m-3.781-6.618h-.946A1.89,1.89,0,0,1,228,297.781v-.945a.945.945,0,0,1,.946-.946h1.891Zm.945,6.618h5.673a.946.946,0,0,1,0,1.891h-5.673a.946.946,0,0,1,0-1.891Z" transform="translate(716.912 96.158)" fill="none" stroke="#fff" stroke-linecap="round" stroke-linejoin="round" stroke-width="1"/>
  </g>
</svg>
