<svg xmlns="http://www.w3.org/2000/svg" width="17" height="17" viewBox="0 0 17 17">
  <g id="Group_70" data-name="Group 70" transform="translate(-991 -260.353)">
    <g id="Group_118" data-name="Group 118" transform="translate(-185 -10.647)">
      <g id="Rectangle_107" data-name="Rectangle 107" transform="translate(1176 271)" fill="#fff" stroke="#707070" stroke-width="1" opacity="0">
        <rect width="17" height="17" stroke="none"/>
        <rect x="0.5" y="0.5" width="16" height="16" fill="none"/>
      </g>
    </g>
    <g id="webiste_kudos_icons-03" transform="translate(812.401 124.061)">
      <g id="Group_1540" data-name="Group 1540" transform="translate(181.599 140.74)">
        <line id="Line_15" data-name="Line 15" x1="2.061" transform="translate(2.306 1.094)" fill="none" stroke="#fff" stroke-linecap="round" stroke-linejoin="round" stroke-width="0.8"/>
        <path id="Path_1528" data-name="Path 1528" d="M307.115,321.141h-1.757a.334.334,0,0,1-.155-.038l-.915-.478a1.12,1.12,0,0,0-.513-.125H302.11a1.1,1.1,0,0,0-.823.367l-1.38,1.532a.34.34,0,0,0,.011.464h0a1.247,1.247,0,0,0,1.776-.014l.375-.386a.339.339,0,0,1,.489,0l3.859,4.109a.54.54,0,0,1-.109.728l-.062.062a.522.522,0,0,1-.722.06l-2.412-2.4" transform="translate(-296.624 -320.047)" fill="none" stroke="#fff" stroke-linecap="round" stroke-linejoin="round" stroke-width="0.8"/>
        <path id="Path_1529" data-name="Path 1529" d="M391.8,523.1l1.825,1.825a.778.778,0,0,0,1.162.008l.223-.223" transform="translate(-386.105 -517.145)" fill="none" stroke="#fff" stroke-linecap="round" stroke-linejoin="round" stroke-width="0.8"/>
        <path id="Path_1530" data-name="Path 1530" d="M363.6,558.4l1.361,1.312a.89.89,0,0,0,1.246-.011l.209-.209" transform="translate(-358.671 -551.486)" fill="none" stroke="#fff" stroke-linecap="round" stroke-linejoin="round" stroke-width="0.8"/>
        <path id="Path_1531" data-name="Path 1531" d="M232.3,497.9l3.226,3.109a.89.89,0,0,0,1.246-.011l.234-.234" transform="translate(-230.937 -492.629)" fill="none" stroke="#fff" stroke-linecap="round" stroke-linejoin="round" stroke-width="0.8"/>
        <path id="Path_1532" data-name="Path 1532" d="M182.1,303.8h1.124v6.382H182.1" transform="translate(-182.1 -303.8)" fill="none" stroke="#fff" stroke-linecap="round" stroke-linejoin="round" stroke-width="0.8"/>
        <path id="Path_1533" data-name="Path 1533" d="M571.3,310.182H570V303.8h1.3" transform="translate(-559.466 -303.8)" fill="none" stroke="#fff" stroke-linecap="round" stroke-linejoin="round" stroke-width="0.8"/>
        <line id="Line_16" data-name="Line 16" x1="1.284" y2="1.005" transform="translate(9.16 4.856)" fill="none" stroke="#fff" stroke-linecap="round" stroke-linejoin="round" stroke-width="0.8"/>
      </g>
    </g>
  </g>
</svg>
